<svg xmlns="http://www.w3.org/2000/svg" width="363.2980651855469" height="365.217529296875" viewBox="-89.83193969726562 -77.10017395019531 363.2980651855469 365.217529296875"><title>Neo4j Graph Visualization</title><desc>Created using Neo4j (http://www.neo4j.com/)</desc><g class="layer relationships"><g class="relationship" transform="translate(135.74432184385594 259.1173739324186) rotate(330.2062434584042)"><path class="outline" fill="#A5ABB6" stroke="none" d="M 21.40063509461097,12.933012701892217 L 21.90063509461097,12.06698729810778 A 57.5930995166214 57.5930995166214 0 0 0 24.248865699366103,13.350935264788923 L 23.78963847639085,14.239254102638505 A 58.5930995166214 58.5930995166214 0 0 1 21.40063509461097,12.933012701892217 Z M 74.27973494668247,15.827709851730297 L 73.87725495691727,14.912281068132899 A 57.5930995166214 57.5930995166214 0 0 0 76.30154972441125,13.778480276743773 L 74.96782927423301,11.091253125798707 L 82.79403315164612,11.11433708481871 L 78.07984365798224,17.361449811337195 L 76.746123207804,14.674222660392127 A 58.5930995166214 58.5930995166214 0 0 1 74.27973494668247,15.827709851730297"/><text text-anchor="middle" pointer-events="none" font-size="8px" fill="#000000" x="48.87043682308802" y="23.254271236027762" font-family="sans-serif">PRODUCED</text></g><g class="relationship" transform="translate(135.74432184385594 259.1173739324186) rotate(330.2062434584042)"><path class="outline" fill="#A5ABB6" stroke="none" d="M 25 0.5 L 25.648483871427494 0.5 L 25.648483871427494 -0.5 L 25 -0.5 Z M 72.53910887142749 0.5 L 73.18759274285499 0.5 L 73.18759274285499 3.5 L 80.18759274285499 0 L 73.18759274285499 -3.5 L 73.18759274285499 -0.5 L 72.53910887142749 -0.5 Z"/><text text-anchor="middle" pointer-events="none" font-size="8px" fill="#000000" x="49.093796371427494" y="3" font-family="sans-serif">DIRECTED</text></g><g class="relationship" transform="translate(135.74432184385594 259.1173739324186) rotate(330.2062434584042)"><path class="outline" fill="#A5ABB6" stroke="none" d="M 21.40063509461097,-12.933012701892217 L 21.90063509461097,-12.06698729810778 A 57.5930995166214 57.5930995166214 0 0 1 31.5260433215206,-16.498577465120775 L 31.19317112515846,-17.441549416394537 A 58.5930995166214 58.5930995166214 0 0 0 21.40063509461097,-12.933012701892217 Z M 66.68954959725797,-18.558291716325 L 66.41661020889535,-17.596260484877575 A 57.5930995166214 57.5930995166214 0 0 1 76.30154972441125,-13.778480276743773 L 74.96782927423301,-11.091253125798707 L 82.79403315164612,-11.11433708481871 L 78.07984365798224,-17.361449811337195 L 76.746123207804,-14.674222660392127 A 58.5930995166214 58.5930995166214 0 0 0 66.68954959725797,-18.558291716325"/><text text-anchor="middle" pointer-events="none" font-size="8px" fill="#000000" x="48.87043682308802" y="-17.254271236027762" font-family="sans-serif">WROTE</text></g><g class="relationship" transform="translate(244.46611665585692 15.776338231295691) rotate(200.65827041277663)"><path class="outline" fill="#A5ABB6" stroke="none" d="M 24.018736134675446,6.953439040707552 L 24.277555179777966,5.987513214418485 A 99.54725249825466 99.54725249825466 0 0 0 25.345493222762233,6.267328744279865 L 25.09740212861951,7.236065452063286 A 100.54725249825466 100.54725249825466 0 0 1 24.018736134675446,6.953439040707552 Z M 71.78597636083944,8.000278747524533 L 71.56972285011062,7.023941500925048 A 99.54725249825466 99.54725249825466 0 0 0 72.64624656270587,6.779227196838344 L 71.96504343610587,3.857590275468684 L 79.5769332336684,5.6766927216666305 L 73.55451739817252,10.674743091997891 L 72.87331427157253,7.753106170628231 A 100.54725249825466 100.54725249825466 0 0 1 71.78597636083944,8.000278747524533"/><text text-anchor="middle" pointer-events="none" font-size="8px" fill="#000000" x="48.40489438924813" y="12.866103864011492" transform="rotate(180 48.40489438924813 9.866103864011492)" font-family="sans-serif">DIRECTED</text></g><g class="relationship" transform="translate(244.46611665585692 15.776338231295691) rotate(200.65827041277663)"><path class="outline" fill="#A5ABB6" stroke="none" d="M 24.018736134675446,-6.953439040707552 L 24.277555179777966,-5.987513214418485 A 99.54725249825466 99.54725249825466 0 0 1 30.738747758060338,-7.4899651859322205 L 30.54483449806118,-8.470983864447831 A 100.54725249825466 100.54725249825466 0 0 0 24.018736134675446,-6.953439040707552 Z M 66.30104594161749,-9.05625280079569 L 66.13934320460889,-8.06941328757992 A 99.54725249825466 99.54725249825466 0 0 1 72.64624656270587,-6.779227196838344 L 71.96504343610587,-3.857590275468684 L 79.5769332336684,-5.6766927216666305 L 73.55451739817252,-10.674743091997891 L 72.87331427157253,-7.753106170628231 A 100.54725249825466 100.54725249825466 0 0 0 66.30104594161749,-9.05625280079569"/><text text-anchor="middle" pointer-events="none" font-size="8px" fill="#000000" x="48.404894389248085" y="-6.866103864011492" transform="rotate(180 48.404894389248085 -9.866103864011492)" font-family="sans-serif">WROTE</text></g><g class="relationship" transform="translate(47.01725666801735 -48.100179569717405) rotate(375.19316755151056)"><path class="outline" fill="#A5ABB6" stroke="none" d="M 24.018736134675446,6.953439040707552 L 24.277555179777966,5.987513214418485 A 99.37204943067944 99.37204943067944 0 0 0 25.302795391010175,6.256373590092409 L 25.05429353486678,7.225005009928296 A 100.37204943067944 100.37204943067944 0 0 1 24.018736134675446,6.953439040707552 Z M 71.74175903105503,7.989804463298896 L 71.52511679817161,7.013553397777699 A 99.37204943067944 99.37204943067944 0 0 0 72.5586130992105,6.778417717640054 L 71.87748558583536,3.856763167471026 L 79.48932830183409,5.676062611459551 L 73.46678311704403,10.673957117865426 L 72.78565560366889,7.752302567696398 A 100.37204943067944 100.37204943067944 0 0 1 71.74175903105503,7.989804463298896"/><text text-anchor="middle" pointer-events="none" font-size="8px" fill="#000000" x="48.361123704775196" y="12.860136270577001" font-family="sans-serif">DIRECTED</text></g><g class="relationship" transform="translate(47.01725666801735 -48.100179569717405) rotate(375.19316755151056)"><path class="outline" fill="#A5ABB6" stroke="none" d="M 24.018736134675446,-6.953439040707552 L 24.277555179777966,-5.987513214418485 A 99.37204943067944 99.37204943067944 0 0 1 30.69554072833429,-7.481022731855674 L 30.501307103229912,-8.461978030979338 A 100.37204943067944 100.37204943067944 0 0 0 24.018736134675446,-6.953439040707552 Z M 66.25715256496619,-9.04770378784599 L 66.09515309864176,-8.060912942270988 A 99.37204943067944 99.37204943067944 0 0 1 72.5586130992105,-6.778417717640054 L 71.87748558583536,-3.856763167471026 L 79.48932830183409,-5.676062611459551 L 73.46678311704403,-10.673957117865426 L 72.78565560366889,-7.752302567696398 A 100.37204943067944 100.37204943067944 0 0 0 66.25715256496619,-9.04770378784599"/><text text-anchor="middle" pointer-events="none" font-size="8px" fill="#000000" x="48.36112370477517" y="-6.8601362705770015" font-family="sans-serif">WROTE</text></g><g class="relationship" transform="translate(-60.83194534101729 95.28077271850741) rotate(432.1605074438194)"><path class="outline" fill="#A5ABB6" stroke="none" d="M 21.40063509461097,12.933012701892217 L 21.90063509461097,12.06698729810778 A 57.17894902786921 57.17894902786921 0 0 0 31.33156707758639,16.422328994228167 L 30.996504211677095,17.364524767880674 A 58.17894902786921 58.17894902786921 0 0 1 21.40063509461097,12.933012701892217 Z M 66.48679638449586,18.485101436948533 L 66.21183977143832,17.523644801974328 A 57.17894902786921 57.17894902786921 0 0 0 75.89874527298274,13.771933037776321 L 74.5656339043887,11.084403674415741 L 82.3918323489231,11.109261404950328 L 77.67622709777478,17.355305522257098 L 76.34311572918075,14.667776158896515 A 58.17894902786921 58.17894902786921 0 0 1 66.48679638449586,18.485101436948533"/><text text-anchor="middle" pointer-events="none" font-size="8px" fill="#000000" x="48.66985152921093" y="23.198784491772052" font-family="sans-serif">WROTE</text></g><g class="relationship" transform="translate(-60.83194534101729 95.28077271850741) rotate(432.1605074438194)"><path class="outline" fill="#A5ABB6" stroke="none" d="M 25 0.5 L 25.448642688463977 0.5 L 25.448642688463977 -0.5 L 25 -0.5 Z M 72.33926768846398 0.5 L 72.78791037692795 0.5 L 72.78791037692795 3.5 L 79.78791037692795 0 L 72.78791037692795 -3.5 L 72.78791037692795 -0.5 L 72.33926768846398 -0.5 Z"/><text text-anchor="middle" pointer-events="none" font-size="8px" fill="#000000" x="48.89395518846398" y="3" font-family="sans-serif">DIRECTED</text></g><g class="relationship" transform="translate(-60.83194534101729 95.28077271850741) rotate(432.1605074438194)"><path class="outline" fill="#A5ABB6" stroke="none" d="M 21.40063509461097,-12.933012701892217 L 21.90063509461097,-12.06698729810778 A 57.17894902786921 57.17894902786921 0 0 1 24.063826715945606,-13.254420402190554 L 23.60165867435184,-14.14121276871689 A 58.17894902786921 58.17894902786921 0 0 0 21.40063509461097,-12.933012701892217 Z M 74.07025645180767,-15.734717068839288 L 73.66495269095824,-14.820534996470052 A 57.17894902786921 57.17894902786921 0 0 1 75.89874527298274,-13.771933037776321 L 74.5656339043887,-11.084403674415741 L 82.3918323489231,-11.109261404950328 L 77.67622709777478,-17.355305522257098 L 76.34311572918075,-14.667776158896515 A 58.17894902786921 58.17894902786921 0 0 0 74.07025645180767,-15.734717068839288"/><text text-anchor="middle" pointer-events="none" font-size="8px" fill="#000000" x="48.66985152921092" y="-17.198784491772052" font-family="sans-serif">PRODUCED</text></g></g><g class="layer nodes"><g class="node" transform="translate(135.74432184385594,259.1173739324186)"><circle class="outline" cx="0" cy="0" r="25" fill="#F79767" stroke="#f36924" stroke-width="2px"/><text text-anchor="middle" pointer-events="none" font-family="sans-serif" dy="1.5625" font-size="25" fill="#FFFFFF"/><text text-anchor="middle" pointer-events="none" font-family="sans-serif" dy="1.5625" font-size="25" fill="#FFFFFF"/><text text-anchor="middle" pointer-events="none" x="0" y="0" font-size="10px" fill="#FFFFFF" font-family="sans-serif"> Cameron</text><text text-anchor="middle" pointer-events="none" x="0" y="10" font-size="10px" fill="#FFFFFF" font-family="sans-serif"> Crowe</text></g><g class="node" transform="translate(227.02817681065773,206.85182610752142)"><circle class="outline" cx="0" cy="0" r="25" fill="#57C7E3" stroke="#23b3d7" stroke-width="2px"/><text text-anchor="middle" pointer-events="none" font-family="sans-serif" dy="1.5625" font-size="25" fill="#2A2C34"/><text text-anchor="middle" pointer-events="none" font-family="sans-serif" dy="1.5625" font-size="25" fill="#2A2C34"/><text text-anchor="middle" pointer-events="none" x="0" y="0" font-size="10px" fill="#2A2C34" font-family="sans-serif"> Jerry</text><text text-anchor="middle" pointer-events="none" x="0" y="10" font-size="10px" fill="#2A2C34" font-family="sans-serif"> Maguire</text></g><g class="node" transform="translate(244.46611665585692,15.776338231295691)"><circle class="outline" cx="0" cy="0" r="25" fill="#F79767" stroke="#f36924" stroke-width="2px"/><text text-anchor="middle" pointer-events="none" font-family="sans-serif" dy="1.5625" font-size="25" fill="#FFFFFF"/><text text-anchor="middle" pointer-events="none" font-family="sans-serif" dy="1.5625" font-size="25" fill="#FFFFFF"/><text text-anchor="middle" pointer-events="none" x="0" y="0" font-size="10px" fill="#FFFFFF" font-family="sans-serif"> Lana</text><text text-anchor="middle" pointer-events="none" x="0" y="10" font-size="10px" fill="#FFFFFF" font-family="sans-serif"> Wacho…</text></g><g class="node" transform="translate(147.22438902369365,-20.887335527334024)"><circle class="outline" cx="0" cy="0" r="25" fill="#57C7E3" stroke="#23b3d7" stroke-width="2px"/><text text-anchor="middle" pointer-events="none" font-family="sans-serif" dy="1.5625" font-size="25" fill="#2A2C34"/><text text-anchor="middle" pointer-events="none" font-family="sans-serif" dy="1.5625" font-size="25" fill="#2A2C34"/><text text-anchor="middle" pointer-events="none" x="0" y="0" font-size="10px" fill="#2A2C34" font-family="sans-serif"> Speed</text><text text-anchor="middle" pointer-events="none" x="0" y="10" font-size="10px" fill="#2A2C34" font-family="sans-serif"> Racer</text></g><g class="node" transform="translate(47.01725666801735,-48.100179569717405)"><circle class="outline" cx="0" cy="0" r="25" fill="#F79767" stroke="#f36924" stroke-width="2px"/><text text-anchor="middle" pointer-events="none" font-family="sans-serif" dy="1.5625" font-size="25" fill="#FFFFFF"/><text text-anchor="middle" pointer-events="none" font-family="sans-serif" dy="1.5625" font-size="25" fill="#FFFFFF"/><text text-anchor="middle" pointer-events="none" x="0" y="0" font-size="10px" fill="#FFFFFF" font-family="sans-serif"> Lilly</text><text text-anchor="middle" pointer-events="none" x="0" y="10" font-size="10px" fill="#FFFFFF" font-family="sans-serif"> Wacho…</text></g><g class="node" transform="translate(-60.83194534101729,95.28077271850741)"><circle class="outline" cx="0" cy="0" r="25" fill="#F79767" stroke="#f36924" stroke-width="2px"/><text text-anchor="middle" pointer-events="none" font-family="sans-serif" dy="1.5625" font-size="25" fill="#FFFFFF"/><text text-anchor="middle" pointer-events="none" font-family="sans-serif" dy="1.5625" font-size="25" fill="#FFFFFF"/><text text-anchor="middle" pointer-events="none" x="0" y="0" font-size="10px" fill="#FFFFFF" font-family="sans-serif"> Nancy</text><text text-anchor="middle" pointer-events="none" x="0" y="10" font-size="10px" fill="#FFFFFF" font-family="sans-serif"> Meyers</text></g><g class="node" transform="translate(-28.730010619626103,195.03031882427484)"><circle class="outline" cx="0" cy="0" r="25" fill="#57C7E3" stroke="#23b3d7" stroke-width="2px"/><text text-anchor="middle" pointer-events="none" font-family="sans-serif" dy="1.5625" font-size="25" fill="#2A2C34"/><text text-anchor="middle" pointer-events="none" x="0" y="5" font-size="10px" fill="#2A2C34" font-family="sans-serif"> Somethi…</text></g></g></svg>