<svg xmlns="http://www.w3.org/2000/svg" width="369.1608581542969" height="366.4278259277344" viewBox="-108.0633773803711 -103.53414154052734 369.1608581542969 366.4278259277344"><title>Neo4j Graph Visualization</title><desc>Created using Neo4j (http://www.neo4j.com/)</desc><g class="layer relationships"><g class="relationship" transform="translate(22.057581021476285 193.65871366947306) rotate(293.58218998676716)"><path class="outline" fill="#A5ABB6" stroke="none" d="M 25 0.5 L 36.714488028669464 0.5 L 36.714488028669464 -0.5 L 25 -0.5 Z M 82.27698802866946 0.5 L 93.99147605733893 0.5 L 93.99147605733893 3.5 L 100.99147605733893 0 L 93.99147605733893 -3.5 L 93.99147605733893 -0.5 L 82.27698802866946 -0.5 Z"/><text text-anchor="middle" pointer-events="none" font-size="8px" fill="#000000" x="59.495738028669464" y="3" font-family="sans-serif">ACTED_IN</text></g><g class="relationship" transform="translate(190.91119597443696 193.07656088044146) rotate(224.12553455183013)"><path class="outline" fill="#A5ABB6" stroke="none" d="M 25 0.5 L 55.56115570476237 0.5 L 55.56115570476237 -0.5 L 25 -0.5 Z M 102.45178070476237 0.5 L 133.01293640952474 0.5 L 133.01293640952474 3.5 L 140.01293640952474 0 L 133.01293640952474 -3.5 L 133.01293640952474 -0.5 L 102.45178070476237 -0.5 Z"/><text text-anchor="middle" pointer-events="none" font-size="8px" fill="#000000" x="79.00646820476237" y="3" transform="rotate(180 79.00646820476237 0)" font-family="sans-serif">DIRECTED</text></g><g class="relationship" transform="translate(220.84888281907624 134.55927632540713) rotate(200.80112610171102)"><path class="outline" fill="#A5ABB6" stroke="none" d="M 25 0.5 L 57.97980828709433 0.5 L 57.97980828709433 -0.5 L 25 -0.5 Z M 93.75324578709433 0.5 L 126.73305407418866 0.5 L 126.73305407418866 3.5 L 133.73305407418866 0 L 126.73305407418866 -3.5 L 126.73305407418866 -0.5 L 93.75324578709433 -0.5 Z"/><text text-anchor="middle" pointer-events="none" font-size="8px" fill="#000000" x="75.86652703709433" y="3" transform="rotate(180 75.86652703709433 0)" font-family="sans-serif">WROTE</text></g><g class="relationship" transform="translate(139.95344840367665 161.580044723488) rotate(231.01553337460973)"><path class="outline" fill="#A5ABB6" stroke="none" d="M 25 0.5 L 27.358993355430613 0.5 L 27.358993355430613 -0.5 L 25 -0.5 Z M 72.92149335543061 0.5 L 75.28048671086123 0.5 L 75.28048671086123 3.5 L 82.28048671086123 0 L 75.28048671086123 -3.5 L 75.28048671086123 -0.5 L 72.92149335543061 -0.5 Z"/><text text-anchor="middle" pointer-events="none" font-size="8px" fill="#000000" x="50.14024335543061" y="3" transform="rotate(180 50.14024335543061 0)" font-family="sans-serif">ACTED_IN</text></g><g class="relationship" transform="translate(194.714273779222 80.65341192317838) rotate(181.15476906626077)"><path class="outline" fill="#A5ABB6" stroke="none" d="M 25 0.5 L 34.85717580040279 0.5 L 34.85717580040279 -0.5 L 25 -0.5 Z M 80.41967580040279 0.5 L 90.27685160080559 0.5 L 90.27685160080559 3.5 L 97.27685160080559 0 L 90.27685160080559 -3.5 L 90.27685160080559 -0.5 L 80.41967580040279 -0.5 Z"/><text text-anchor="middle" pointer-events="none" font-size="8px" fill="#000000" x="57.63842580040279" y="3" transform="rotate(180 57.63842580040279 0)" font-family="sans-serif">ACTED_IN</text></g><g class="relationship" transform="translate(232.09748479590283 33.763836837771166) rotate(524.4485059652834)"><path class="outline" fill="#A5ABB6" stroke="none" d="M 25 0.5 L 56.569541272216824 0.5 L 56.569541272216824 -0.5 L 25 -0.5 Z M 102.13204127221682 0.5 L 133.70158254443365 0.5 L 133.70158254443365 3.5 L 140.70158254443365 0 L 133.70158254443365 -3.5 L 133.70158254443365 -0.5 L 102.13204127221682 -0.5 Z"/><text text-anchor="middle" pointer-events="none" font-size="8px" fill="#000000" x="79.35079127221682" y="3" transform="rotate(180 79.35079127221682 0)" font-family="sans-serif">ACTED_IN</text></g><g class="relationship" transform="translate(156.06057241197283 -49.01289811171109) rotate(483.31327350568057)"><path class="outline" fill="#A5ABB6" stroke="none" d="M 25 0.5 L 49.82564659371228 0.5 L 49.82564659371228 -0.5 L 25 -0.5 Z M 95.38814659371228 0.5 L 120.21379318742456 0.5 L 120.21379318742456 3.5 L 127.21379318742456 0 L 120.21379318742456 -3.5 L 120.21379318742456 -0.5 L 95.38814659371228 -0.5 Z"/><text text-anchor="middle" pointer-events="none" font-size="8px" fill="#000000" x="72.60689659371228" y="3" transform="rotate(180 72.60689659371228 0)" font-family="sans-serif">ACTED_IN</text></g><g class="relationship" transform="translate(178.71888123654162 6.375336067719885) rotate(505.94710548374957)"><path class="outline" fill="#A5ABB6" stroke="none" d="M 25 0.5 L 37.843031415254075 0.5 L 37.843031415254075 -0.5 L 25 -0.5 Z M 83.40553141525407 0.5 L 96.24856283050815 0.5 L 96.24856283050815 3.5 L 103.24856283050815 0 L 96.24856283050815 -3.5 L 96.24856283050815 -0.5 L 83.40553141525407 -0.5 Z"/><text text-anchor="middle" pointer-events="none" font-size="8px" fill="#000000" x="60.624281415254075" y="3" transform="rotate(180 60.624281415254075 0)" font-family="sans-serif">ACTED_IN</text></g><g class="relationship" transform="translate(101.70774577852187 -74.53414175204696) rotate(460.8405242520247)"><path class="outline" fill="#A5ABB6" stroke="none" d="M 25 0.5 L 51.4678684301785 0.5 L 51.4678684301785 -0.5 L 25 -0.5 Z M 97.0303684301785 0.5 L 123.498236860357 0.5 L 123.498236860357 3.5 L 130.498236860357 0 L 123.498236860357 -3.5 L 123.498236860357 -0.5 L 97.0303684301785 -0.5 Z"/><text text-anchor="middle" pointer-events="none" font-size="8px" fill="#000000" x="74.2491184301785" y="3" transform="rotate(180 74.2491184301785 0)" font-family="sans-serif">ACTED_IN</text></g><g class="relationship" transform="translate(66.49560400016735 233.89368235897956) rotate(272.19452048144444)"><path class="outline" fill="#A5ABB6" stroke="none" d="M 25 0.5 L 51.628157641693676 0.5 L 51.628157641693676 -0.5 L 25 -0.5 Z M 97.19065764169368 0.5 L 123.81881528338735 0.5 L 123.81881528338735 3.5 L 130.81881528338735 0 L 123.81881528338735 -3.5 L 123.81881528338735 -0.5 L 97.19065764169368 -0.5 Z"/><text text-anchor="middle" pointer-events="none" font-size="8px" fill="#000000" x="74.40940764169368" y="3" font-family="sans-serif">ACTED_IN</text></g><g class="relationship" transform="translate(-1.5066035560745035 -59.967948140243166) rotate(421.83554827662584)"><path class="outline" fill="#A5ABB6" stroke="none" d="M 25 0.5 L 52.074948213521495 0.5 L 52.074948213521495 -0.5 L 25 -0.5 Z M 97.6374482135215 0.5 L 124.71239642704299 0.5 L 124.71239642704299 3.5 L 131.712396427043 0 L 124.71239642704299 -3.5 L 124.71239642704299 -0.5 L 97.6374482135215 -0.5 Z"/><text text-anchor="middle" pointer-events="none" font-size="8px" fill="#000000" x="74.8561982135215" y="3" font-family="sans-serif">ACTED_IN</text></g><g class="relationship" transform="translate(-63.097223400793894 42.17370949664402) rotate(374.8786236576808)"><path class="outline" fill="#A5ABB6" stroke="none" d="M 25 0.5 L 43.84984906861227 0.5 L 43.84984906861227 -0.5 L 25 -0.5 Z M 89.41234906861227 0.5 L 108.26219813722454 0.5 L 108.26219813722454 3.5 L 115.26219813722454 0 L 108.26219813722454 -3.5 L 108.26219813722454 -0.5 L 89.41234906861227 -0.5 Z"/><text text-anchor="middle" pointer-events="none" font-size="8px" fill="#000000" x="66.63109906861227" y="3" font-family="sans-serif">ACTED_IN</text></g><g class="relationship" transform="translate(-37.39237199767776 -11.95723288543434) rotate(399.372200221564)"><path class="outline" fill="#A5ABB6" stroke="none" d="M 25 0.5 L 44.772267072098856 0.5 L 44.772267072098856 -0.5 L 25 -0.5 Z M 90.33476707209886 0.5 L 110.10703414419771 0.5 L 110.10703414419771 3.5 L 117.10703414419771 0 L 110.10703414419771 -3.5 L 110.10703414419771 -0.5 L 90.33476707209886 -0.5 Z"/><text text-anchor="middle" pointer-events="none" font-size="8px" fill="#000000" x="67.55351707209886" y="3" font-family="sans-serif">ACTED_IN</text></g><g class="relationship" transform="translate(-79.06337688037881 99.98797232193814) rotate(351.8134665285879)"><path class="outline" fill="#A5ABB6" stroke="none" d="M 25 0.5 L 50.2615586313683 0.5 L 50.2615586313683 -0.5 L 25 -0.5 Z M 95.8240586313683 0.5 L 121.0856172627366 0.5 L 121.0856172627366 3.5 L 128.0856172627366 0 L 121.0856172627366 -3.5 L 121.0856172627366 -0.5 L 95.8240586313683 -0.5 Z"/><text text-anchor="middle" pointer-events="none" font-size="8px" fill="#000000" x="73.0428086313683" y="3" font-family="sans-serif">ACTED_IN</text></g><g class="relationship" transform="translate(-34.248512677385655 139.79257988995147) rotate(330.0024397422067)"><path class="outline" fill="#A5ABB6" stroke="none" d="M 25 0.5 L 35.32672651175644 0.5 L 35.32672651175644 -0.5 L 25 -0.5 Z M 80.88922651175645 0.5 L 91.21595302351288 0.5 L 91.21595302351288 3.5 L 98.21595302351288 0 L 91.21595302351288 -3.5 L 91.21595302351288 -0.5 L 80.88922651175645 -0.5 Z"/><text text-anchor="middle" pointer-events="none" font-size="8px" fill="#000000" x="58.10797651175644" y="3" font-family="sans-serif">ACTED_IN</text></g><g class="relationship" transform="translate(-37.54805563510318 199.6800108017125) rotate(312.1609270613828)"><path class="outline" fill="#A5ABB6" stroke="none" d="M 25 0.5 L 55.66735982659556 0.5 L 55.66735982659556 -0.5 L 25 -0.5 Z M 101.22985982659556 0.5 L 131.89721965319112 0.5 L 131.89721965319112 3.5 L 138.89721965319112 0 L 131.89721965319112 -3.5 L 131.89721965319112 -0.5 L 101.22985982659556 -0.5 Z"/><text text-anchor="middle" pointer-events="none" font-size="8px" fill="#000000" x="78.44860982659556" y="3" font-family="sans-serif">ACTED_IN</text></g><g class="relationship" transform="translate(54.22270148243602 -37.975121896734066) rotate(441.0765486526766)"><path class="outline" fill="#A5ABB6" stroke="none" d="M 25 0.5 L 32.51249705911142 0.5 L 32.51249705911142 -0.5 L 25 -0.5 Z M 78.07499705911141 0.5 L 85.58749411822284 0.5 L 85.58749411822284 3.5 L 92.58749411822284 0 L 85.58749411822284 -3.5 L 85.58749411822284 -0.5 L 78.07499705911141 -0.5 Z"/><text text-anchor="middle" pointer-events="none" font-size="8px" fill="#000000" x="55.29374705911142" y="3" font-family="sans-serif">ACTED_IN</text></g><g class="relationship" transform="translate(125.31693437831763 222.0495685160928) rotate(249.82654176000716)"><path class="outline" fill="#A5ABB6" stroke="none" d="M 25 0.5 L 55.244602902422685 0.5 L 55.244602902422685 -0.5 L 25 -0.5 Z M 91.01804040242268 0.5 L 121.26264330484537 0.5 L 121.26264330484537 3.5 L 128.26264330484537 0 L 121.26264330484537 -3.5 L 121.26264330484537 -0.5 L 91.01804040242268 -0.5 Z"/><text text-anchor="middle" pointer-events="none" font-size="8px" fill="#000000" x="73.13132165242268" y="3" transform="rotate(180 73.13132165242268 0)" font-family="sans-serif">WROTE</text></g></g><g class="layer nodes"><g class="node" transform="translate(72.4622560579164,78.1891472306149)"><circle class="outline" cx="0" cy="0" r="25" fill="#57C7E3" stroke="#23b3d7" stroke-width="2px"/><text text-anchor="middle" pointer-events="none" font-family="sans-serif" dy="1.5625" font-size="25" fill="#2A2C34"/><text text-anchor="middle" pointer-events="none" font-family="sans-serif" dy="1.5625" font-size="25" fill="#2A2C34"/><text text-anchor="middle" pointer-events="none" font-family="sans-serif" dy="1.5625" font-size="25" fill="#2A2C34"/><text text-anchor="middle" pointer-events="none" x="0" y="-5" font-size="10px" fill="#2A2C34" font-family="sans-serif"> Captain</text><text text-anchor="middle" pointer-events="none" x="0" y="5" font-size="10px" fill="#2A2C34" font-family="sans-serif"> America:</text><text text-anchor="middle" pointer-events="none" x="0" y="15" font-size="10px" fill="#2A2C34" font-family="sans-serif"> The Fi…</text></g><g class="node" transform="translate(22.057581021476285,193.65871366947306)"><circle class="outline" cx="0" cy="0" r="25" fill="#F79767" stroke="#f36924" stroke-width="2px"/><text text-anchor="middle" pointer-events="none" font-family="sans-serif" dy="1.5625" font-size="25" fill="#FFFFFF"/><text text-anchor="middle" pointer-events="none" font-family="sans-serif" dy="1.5625" font-size="25" fill="#FFFFFF"/><text text-anchor="middle" pointer-events="none" x="0" y="0" font-size="10px" fill="#FFFFFF" font-family="sans-serif"> Tommy</text><text text-anchor="middle" pointer-events="none" x="0" y="10" font-size="10px" fill="#FFFFFF" font-family="sans-serif"> Lee Jon…</text></g><g class="node" transform="translate(190.91119597443696,193.07656088044146)"><circle class="outline" cx="0" cy="0" r="25" fill="#F79767" stroke="#f36924" stroke-width="2px"/><text text-anchor="middle" pointer-events="none" font-family="sans-serif" dy="1.5625" font-size="25" fill="#FFFFFF"/><text text-anchor="middle" pointer-events="none" font-family="sans-serif" dy="1.5625" font-size="25" fill="#FFFFFF"/><text text-anchor="middle" pointer-events="none" x="0" y="0" font-size="10px" fill="#FFFFFF" font-family="sans-serif"> Joe</text><text text-anchor="middle" pointer-events="none" x="0" y="10" font-size="10px" fill="#FFFFFF" font-family="sans-serif"> Johnston</text></g><g class="node" transform="translate(220.84888281907624,134.55927632540713)"><circle class="outline" cx="0" cy="0" r="25" fill="#F79767" stroke="#f36924" stroke-width="2px"/><text text-anchor="middle" pointer-events="none" font-family="sans-serif" dy="1.5625" font-size="25" fill="#FFFFFF"/><text text-anchor="middle" pointer-events="none" font-family="sans-serif" dy="1.5625" font-size="25" fill="#FFFFFF"/><text text-anchor="middle" pointer-events="none" x="0" y="0" font-size="10px" fill="#FFFFFF" font-family="sans-serif"> Stephen</text><text text-anchor="middle" pointer-events="none" x="0" y="10" font-size="10px" fill="#FFFFFF" font-family="sans-serif"> McFeely</text></g><g class="node" transform="translate(139.95344840367665,161.580044723488)"><circle class="outline" cx="0" cy="0" r="25" fill="#F79767" stroke="#f36924" stroke-width="2px"/><text text-anchor="middle" pointer-events="none" font-family="sans-serif" dy="1.5625" font-size="25" fill="#FFFFFF"/><text text-anchor="middle" pointer-events="none" font-family="sans-serif" dy="1.5625" font-size="25" fill="#FFFFFF"/><text text-anchor="middle" pointer-events="none" x="0" y="0" font-size="10px" fill="#FFFFFF" font-family="sans-serif"> Kenneth</text><text text-anchor="middle" pointer-events="none" x="0" y="10" font-size="10px" fill="#FFFFFF" font-family="sans-serif"> Choi</text></g><g class="node" transform="translate(194.714273779222,80.65341192317838)"><circle class="outline" cx="0" cy="0" r="25" fill="#F79767" stroke="#f36924" stroke-width="2px"/><text text-anchor="middle" pointer-events="none" font-family="sans-serif" dy="1.5625" font-size="25" fill="#FFFFFF"/><text text-anchor="middle" pointer-events="none" font-family="sans-serif" dy="1.5625" font-size="25" fill="#FFFFFF"/><text text-anchor="middle" pointer-events="none" x="0" y="0" font-size="10px" fill="#FFFFFF" font-family="sans-serif"> Derek</text><text text-anchor="middle" pointer-events="none" x="0" y="10" font-size="10px" fill="#FFFFFF" font-family="sans-serif"> Luke</text></g><g class="node" transform="translate(232.09748479590283,33.763836837771166)"><circle class="outline" cx="0" cy="0" r="25" fill="#F79767" stroke="#f36924" stroke-width="2px"/><text text-anchor="middle" pointer-events="none" font-family="sans-serif" dy="1.5625" font-size="25" fill="#FFFFFF"/><text text-anchor="middle" pointer-events="none" font-family="sans-serif" dy="1.5625" font-size="25" fill="#FFFFFF"/><text text-anchor="middle" pointer-events="none" x="0" y="0" font-size="10px" fill="#FFFFFF" font-family="sans-serif"> Hugo</text><text text-anchor="middle" pointer-events="none" x="0" y="10" font-size="10px" fill="#FFFFFF" font-family="sans-serif"> Weaving</text></g><g class="node" transform="translate(156.06057241197283,-49.01289811171109)"><circle class="outline" cx="0" cy="0" r="25" fill="#F79767" stroke="#f36924" stroke-width="2px"/><text text-anchor="middle" pointer-events="none" font-family="sans-serif" dy="1.5625" font-size="25" fill="#FFFFFF"/><text text-anchor="middle" pointer-events="none" font-family="sans-serif" dy="1.5625" font-size="25" fill="#FFFFFF"/><text text-anchor="middle" pointer-events="none" x="0" y="0" font-size="10px" fill="#FFFFFF" font-family="sans-serif"> Richard</text><text text-anchor="middle" pointer-events="none" x="0" y="10" font-size="10px" fill="#FFFFFF" font-family="sans-serif"> Armitage</text></g><g class="node" transform="translate(178.71888123654162,6.375336067719885)"><circle class="outline" cx="0" cy="0" r="25" fill="#F79767" stroke="#f36924" stroke-width="2px"/><text text-anchor="middle" pointer-events="none" font-family="sans-serif" dy="1.5625" font-size="25" fill="#FFFFFF"/><text text-anchor="middle" pointer-events="none" x="0" y="5" font-size="10px" fill="#FFFFFF" font-family="sans-serif"> Sebastian</text></g><g class="node" transform="translate(101.70774577852187,-74.53414175204696)"><circle class="outline" cx="0" cy="0" r="25" fill="#F79767" stroke="#f36924" stroke-width="2px"/><text text-anchor="middle" pointer-events="none" font-family="sans-serif" dy="1.5625" font-size="25" fill="#FFFFFF"/><text text-anchor="middle" pointer-events="none" font-family="sans-serif" dy="1.5625" font-size="25" fill="#FFFFFF"/><text text-anchor="middle" pointer-events="none" x="0" y="0" font-size="10px" fill="#FFFFFF" font-family="sans-serif"> Hayley</text><text text-anchor="middle" pointer-events="none" x="0" y="10" font-size="10px" fill="#FFFFFF" font-family="sans-serif"> Atwell</text></g><g class="node" transform="translate(66.49560400016735,233.89368235897956)"><circle class="outline" cx="0" cy="0" r="25" fill="#F79767" stroke="#f36924" stroke-width="2px"/><text text-anchor="middle" pointer-events="none" font-family="sans-serif" dy="1.5625" font-size="25" fill="#FFFFFF"/><text text-anchor="middle" pointer-events="none" font-family="sans-serif" dy="1.5625" font-size="25" fill="#FFFFFF"/><text text-anchor="middle" pointer-events="none" font-family="sans-serif" dy="1.5625" font-size="25" fill="#FFFFFF"/><text text-anchor="middle" pointer-events="none" x="0" y="-5" font-size="10px" fill="#FFFFFF" font-family="sans-serif"> Samuel</text><text text-anchor="middle" pointer-events="none" x="0" y="5" font-size="10px" fill="#FFFFFF" font-family="sans-serif"> L.</text><text text-anchor="middle" pointer-events="none" x="0" y="15" font-size="10px" fill="#FFFFFF" font-family="sans-serif"> Jackson</text></g><g class="node" transform="translate(-1.5066035560745035,-59.967948140243166)"><circle class="outline" cx="0" cy="0" r="25" fill="#F79767" stroke="#f36924" stroke-width="2px"/><text text-anchor="middle" pointer-events="none" font-family="sans-serif" dy="1.5625" font-size="25" fill="#FFFFFF"/><text text-anchor="middle" pointer-events="none" font-family="sans-serif" dy="1.5625" font-size="25" fill="#FFFFFF"/><text text-anchor="middle" pointer-events="none" x="0" y="0" font-size="10px" fill="#FFFFFF" font-family="sans-serif"> Chris</text><text text-anchor="middle" pointer-events="none" x="0" y="10" font-size="10px" fill="#FFFFFF" font-family="sans-serif"> Evans</text></g><g class="node" transform="translate(-63.097223400793894,42.17370949664402)"><circle class="outline" cx="0" cy="0" r="25" fill="#F79767" stroke="#f36924" stroke-width="2px"/><text text-anchor="middle" pointer-events="none" font-family="sans-serif" dy="1.5625" font-size="25" fill="#FFFFFF"/><text text-anchor="middle" pointer-events="none" font-family="sans-serif" dy="1.5625" font-size="25" fill="#FFFFFF"/><text text-anchor="middle" pointer-events="none" x="0" y="0" font-size="10px" fill="#FFFFFF" font-family="sans-serif"> Bruno</text><text text-anchor="middle" pointer-events="none" x="0" y="10" font-size="10px" fill="#FFFFFF" font-family="sans-serif"> Ricci</text></g><g class="node" transform="translate(-37.39237199767776,-11.95723288543434)"><circle class="outline" cx="0" cy="0" r="25" fill="#F79767" stroke="#f36924" stroke-width="2px"/><text text-anchor="middle" pointer-events="none" font-family="sans-serif" dy="1.5625" font-size="25" fill="#FFFFFF"/><text text-anchor="middle" pointer-events="none" font-family="sans-serif" dy="1.5625" font-size="25" fill="#FFFFFF"/><text text-anchor="middle" pointer-events="none" x="0" y="0" font-size="10px" fill="#FFFFFF" font-family="sans-serif"> Neal</text><text text-anchor="middle" pointer-events="none" x="0" y="10" font-size="10px" fill="#FFFFFF" font-family="sans-serif"> McDon…</text></g><g class="node" transform="translate(-79.06337688037881,99.98797232193814)"><circle class="outline" cx="0" cy="0" r="25" fill="#F79767" stroke="#f36924" stroke-width="2px"/><text text-anchor="middle" pointer-events="none" font-family="sans-serif" dy="1.5625" font-size="25" fill="#FFFFFF"/><text text-anchor="middle" pointer-events="none" font-family="sans-serif" dy="1.5625" font-size="25" fill="#FFFFFF"/><text text-anchor="middle" pointer-events="none" x="0" y="0" font-size="10px" fill="#FFFFFF" font-family="sans-serif"> Dominic</text><text text-anchor="middle" pointer-events="none" x="0" y="10" font-size="10px" fill="#FFFFFF" font-family="sans-serif"> Cooper</text></g><g class="node" transform="translate(-34.248512677385655,139.79257988995147)"><circle class="outline" cx="0" cy="0" r="25" fill="#F79767" stroke="#f36924" stroke-width="2px"/><text text-anchor="middle" pointer-events="none" font-family="sans-serif" dy="1.5625" font-size="25" fill="#FFFFFF"/><text text-anchor="middle" pointer-events="none" font-family="sans-serif" dy="1.5625" font-size="25" fill="#FFFFFF"/><text text-anchor="middle" pointer-events="none" x="0" y="0" font-size="10px" fill="#FFFFFF" font-family="sans-serif"> Toby</text><text text-anchor="middle" pointer-events="none" x="0" y="10" font-size="10px" fill="#FFFFFF" font-family="sans-serif"> Jones</text></g><g class="node" transform="translate(-37.54805563510318,199.6800108017125)"><circle class="outline" cx="0" cy="0" r="25" fill="#F79767" stroke="#f36924" stroke-width="2px"/><text text-anchor="middle" pointer-events="none" font-family="sans-serif" dy="1.5625" font-size="25" fill="#FFFFFF"/><text text-anchor="middle" pointer-events="none" font-family="sans-serif" dy="1.5625" font-size="25" fill="#FFFFFF"/><text text-anchor="middle" pointer-events="none" x="0" y="0" font-size="10px" fill="#FFFFFF" font-family="sans-serif"> Stanley</text><text text-anchor="middle" pointer-events="none" x="0" y="10" font-size="10px" fill="#FFFFFF" font-family="sans-serif"> Tucci</text></g><g class="node" transform="translate(54.22270148243602,-37.975121896734066)"><circle class="outline" cx="0" cy="0" r="25" fill="#F79767" stroke="#f36924" stroke-width="2px"/><text text-anchor="middle" pointer-events="none" font-family="sans-serif" dy="1.5625" font-size="25" fill="#FFFFFF"/><text text-anchor="middle" pointer-events="none" x="0" y="5" font-size="10px" fill="#FFFFFF" font-family="sans-serif"> JJ Feild</text></g><g class="node" transform="translate(125.31693437831763,222.0495685160928)"><circle class="outline" cx="0" cy="0" r="25" fill="#F79767" stroke="#f36924" stroke-width="2px"/><text text-anchor="middle" pointer-events="none" font-family="sans-serif" dy="1.5625" font-size="25" fill="#FFFFFF"/><text text-anchor="middle" pointer-events="none" x="0" y="5" font-size="10px" fill="#FFFFFF" font-family="sans-serif"> Christop…</text></g></g></svg>