<svg xmlns="http://www.w3.org/2000/svg" width="431.7642517089844" height="68.41741943359375" viewBox="-148.4564208984375 89.82855224609375 431.7642517089844 68.41741943359375"><title>Neo4j Graph Visualization</title><desc>Created using Neo4j (http://www.neo4j.com/)</desc><g class="layer relationships"><g class="relationship" transform="translate(-119.45642993616971 129.2459732152466) rotate(356.87605392109083)"><path class="outline" fill="#A5ABB6" stroke="none" d="M 25 0.5 L 58.409552414339274 0.5 L 58.409552414339274 -0.5 L 25 -0.5 Z M 125.74939616433927 0.5 L 159.15894857867855 0.5 L 159.15894857867855 3.5 L 166.15894857867855 0 L 159.15894857867855 -3.5 L 159.15894857867855 -0.5 L 125.74939616433927 -0.5 Z"/><text text-anchor="middle" pointer-events="none" font-size="8px" fill="#000000" x="92.07947428933927" y="3" font-family="sans-serif">FLIGHT_TICKET</text></g><g class="relationship" transform="translate(71.41845291459938 118.82854942569845) rotate(360.9371059564641)"><path class="outline" fill="#A5ABB6" stroke="none" d="M 25 0.5 L 54.28699815785545 0.5 L 54.28699815785545 -0.5 L 25 -0.5 Z M 121.62684190785545 0.5 L 150.9138400657109 0.5 L 150.9138400657109 3.5 L 157.9138400657109 0 L 150.9138400657109 -3.5 L 150.9138400657109 -0.5 L 121.62684190785545 -0.5 Z"/><text text-anchor="middle" pointer-events="none" font-size="8px" fill="#000000" x="87.95692003285545" y="3" font-family="sans-serif">FLIGHT_TICKET</text></g></g><g class="layer nodes"><g class="node" transform="translate(-119.45642993616971,129.2459732152466)"><circle class="outline" cx="0" cy="0" r="25" fill="#ECB5C9" stroke="#da7298" stroke-width="2px"/><text text-anchor="middle" pointer-events="none" font-family="sans-serif" dy="1.5625" font-size="25" fill="#2A2C34"/><text text-anchor="middle" pointer-events="none" x="0" y="5" font-size="10px" fill="#2A2C34" font-family="sans-serif"> MSN</text></g><g class="node" transform="translate(254.30782832944988,121.8200787921505)"><circle class="outline" cx="0" cy="0" r="25" fill="#ECB5C9" stroke="#da7298" stroke-width="2px"/><text text-anchor="middle" pointer-events="none" font-family="sans-serif" dy="1.5625" font-size="25" fill="#2A2C34"/><text text-anchor="middle" pointer-events="none" x="0" y="5" font-size="10px" fill="#2A2C34" font-family="sans-serif"> GRR</text></g><g class="node" transform="translate(71.41845291459938,118.82854942569845)"><circle class="outline" cx="0" cy="0" r="25" fill="#ECB5C9" stroke="#da7298" stroke-width="2px"/><text text-anchor="middle" pointer-events="none" font-family="sans-serif" dy="1.5625" font-size="25" fill="#2A2C34"/><text text-anchor="middle" pointer-events="none" x="0" y="5" font-size="10px" fill="#2A2C34" font-family="sans-serif"> ORD</text></g></g></svg>